<?xml version="1.0" standalone="no"?>
<!DOCTYPE svg PUBLIC "-//W3C//DTD SVG 20010904//EN"
 "http://www.w3.org/TR/2001/REC-SVG-20010904/DTD/svg10.dtd">
<svg version="1.0" xmlns="http://www.w3.org/2000/svg"
 width="512.000000pt" height="512.000000pt" viewBox="0 0 512.000000 512.000000"
 preserveAspectRatio="xMidYMid meet">

<g transform="translate(0.000000,512.000000) scale(0.110000,-0.110000)"
fill="rgba(241,180,156,0.658)" stroke="none">
<path d="M2057 3945 c-695 -184 -1106 -623 -1221 -1306 -30 -177 -36 -324 -36
-867 0 -596 -1 -585 60 -617 44 -23 1276 -23 1320 0 61 32 60 18 60 647 0 616
1 602 -53 642 -27 20 -41 21 -389 24 l-361 3 7 104 c25 387 251 677 655 841
l106 44 3 260 c2 205 0 260 -10 259 -7 0 -71 -16 -141 -34z"/>
<path d="M4160 3950 c-356 -96 -598 -227 -811 -440 -224 -223 -354 -476 -423
-820 -41 -204 -46 -311 -46 -902 0 -613 -1 -601 60 -633 44 -23 1276 -23 1320
0 61 32 60 18 60 647 0 616 1 602 -53 642 -27 20 -41 21 -388 24 l-359 3 0 63
c0 286 168 582 433 765 57 39 216 118 281 141 l51 17 3 261 c2 207 0 262 -10
261 -7 0 -60 -13 -118 -29z"/>
</g>
</svg>
